<?xml version="1.0" encoding="UTF-8"?>
<svg xmlns="http://www.w3.org/2000/svg" xmlns:xlink="http://www.w3.org/1999/xlink" width="16px" height="16px" viewBox="0 0 16 16" version="1.1">
<g id="surface1">
<path style=" stroke:none;fill-rule:nonzero;fill:rgb(100%,100%,100%);fill-opacity:1;" d="M 8 0 C 12.417969 0 16 3.582031 16 8 C 16 12.417969 12.417969 16 8 16 C 3.582031 16 0 12.417969 0 8 C 0 3.582031 3.582031 0 8 0 Z M 8 0 "/>
<path style="fill-rule:nonzero;fill:rgb(76.862746%,9.019608%,9.411765%);fill-opacity:1;stroke-width:0.00032;stroke-linecap:butt;stroke-linejoin:miter;stroke:rgb(100%,100%,100%);stroke-opacity:1;stroke-miterlimit:4;" d="M 2.003125 15.278126 C 3.915625 15.278126 4.1125 14.228126 4.1125 13.365626 C 4.09375 12.625001 4.028125 11.884376 3.915625 11.162501 C 3.8125 10.43125 3.746875 9.690625 3.728125 8.95 C 3.728125 6.55 5.359375 5.5 7.5625 5.5 L 8.134375 5.5 L 8.134375 6.934375 L 7.65625 6.934375 C 6.128125 6.934375 5.546875 7.703125 5.546875 9.146875 C 5.565625 9.784375 5.63125 10.43125 5.74375 11.059376 C 5.846875 11.725001 5.9125 12.400001 5.93125 13.075001 C 5.93125 14.800001 5.265625 15.568751 4.009375 15.953126 L 4.009375 16.056251 C 5.1625 16.337501 5.93125 17.200001 5.93125 18.925001 C 5.9125 19.600001 5.846875 20.275001 5.74375 20.940626 C 5.63125 21.578126 5.565625 22.215626 5.546875 22.862501 C 5.546875 24.296876 6.11875 25.159376 7.65625 25.159376 L 8.134375 25.159376 L 8.134375 26.603126 L 7.5625 26.603126 C 5.359375 26.603126 3.728125 25.637501 3.728125 22.956251 C 3.746875 22.215626 3.8125 21.484376 3.915625 20.753126 C 4.028125 20.050001 4.09375 19.346876 4.1125 18.643751 C 4.1125 17.781251 3.821875 16.721876 2.003125 16.721876 Z M 2.003125 15.278126 " transform="matrix(0.416667,0,0,0.416667,1.333333,1.333333)"/>
<path style="fill-rule:nonzero;fill:rgb(76.862746%,9.019608%,9.411765%);fill-opacity:1;stroke-width:0.00032;stroke-linecap:butt;stroke-linejoin:miter;stroke:rgb(100%,100%,100%);stroke-opacity:1;stroke-miterlimit:4;" d="M 9.475 18.062501 L 8.2375 21.803126 L 6.596875 21.803126 L 10.628126 9.915625 L 12.456251 9.915625 L 16.478126 21.803126 L 14.940626 21.803126 L 13.703126 18.062501 Z M 13.412501 16.909376 L 12.259376 13.459376 C 11.978126 12.746876 11.790626 12.006251 11.687501 11.256251 C 11.490626 11.921876 11.303126 12.690626 11.106251 13.365626 L 9.9625 16.815626 L 13.412501 16.815626 Z M 13.412501 16.909376 " transform="matrix(0.416667,0,0,0.416667,1.333333,1.333333)"/>
<path style="fill-rule:nonzero;fill:rgb(76.862746%,9.019608%,9.411765%);fill-opacity:1;stroke-width:0.00032;stroke-linecap:butt;stroke-linejoin:miter;stroke:rgb(100%,100%,100%);stroke-opacity:1;stroke-miterlimit:4;" d="M 17.921876 19.975001 C 18.765626 20.462501 19.721876 20.725001 20.696876 20.743751 C 22.234376 20.743751 23.190626 19.881251 23.190626 18.728126 C 23.190626 17.584376 22.525001 17.003126 20.987501 16.328126 C 19.065626 15.662501 17.818751 14.603126 17.818751 12.971876 C 17.818751 11.153126 19.356251 9.71875 21.662501 9.71875 C 22.553126 9.68125 23.453126 9.878125 24.250001 10.290625 L 23.865626 11.537501 C 23.143751 11.218751 22.356251 11.050001 21.559376 11.059376 C 19.937501 11.059376 19.356251 12.015626 19.356251 12.878126 C 19.356251 14.031251 20.125001 14.509376 21.756251 15.184376 C 23.771876 15.943751 24.831251 16.909376 24.831251 18.634376 C 24.831251 20.453126 23.481251 22.084376 20.706251 22.084376 C 19.628126 22.121876 18.568751 21.850001 17.640626 21.315626 Z M 17.921876 19.975001 " transform="matrix(0.416667,0,0,0.416667,1.333333,1.333333)"/>
<path style="fill-rule:nonzero;fill:rgb(76.862746%,9.019608%,9.411765%);fill-opacity:1;stroke-width:0.00032;stroke-linecap:butt;stroke-linejoin:miter;stroke:rgb(100%,100%,100%);stroke-opacity:1;stroke-miterlimit:4;" d="M 29.996876 16.618751 C 28.084376 16.618751 27.887501 17.771876 27.887501 18.540626 C 27.906251 19.243751 27.971876 19.956251 28.084376 20.650001 C 28.196876 21.381251 28.262501 22.121876 28.271876 22.853126 C 28.271876 25.543751 26.640626 26.500001 24.437501 26.500001 L 23.865626 26.500001 L 23.865626 25.065626 L 24.343751 25.065626 C 25.778126 25.065626 26.453126 24.203126 26.453126 22.759376 C 26.434376 22.121876 26.368751 21.475001 26.256251 20.846876 C 26.153126 20.181251 26.087501 19.506251 26.068751 18.831251 C 26.068751 17.106251 26.837501 16.243751 27.990626 15.953126 L 27.990626 15.850001 C 26.837501 15.568751 26.068751 14.706251 26.068751 12.971876 C 26.087501 12.296876 26.153126 11.631251 26.256251 10.965626 C 26.368751 10.328125 26.434376 9.690625 26.453126 9.04375 C 26.453126 7.609375 25.881251 6.840625 24.343751 6.746875 L 23.865626 6.746875 L 23.865626 5.396875 L 24.437501 5.396875 C 26.640626 5.396875 28.271876 6.45625 28.271876 8.85625 C 28.253126 9.5875 28.196876 10.328125 28.084376 11.059376 C 27.971876 11.790626 27.906251 12.521876 27.887501 13.262501 C 27.887501 14.218751 28.178126 15.184376 29.996876 15.184376 Z M 29.996876 16.618751 " transform="matrix(0.416667,0,0,0.416667,1.333333,1.333333)"/>
</g>
</svg>
