<?xml version="1.0" encoding="UTF-8"?>
<svg xmlns="http://www.w3.org/2000/svg" xmlns:xlink="http://www.w3.org/1999/xlink" width="166px" height="166px" viewBox="0 0 166 166" version="1.1">
<g id="surface1">
<path style=" stroke:none;fill-rule:nonzero;fill:rgb(100%,100%,100%);fill-opacity:1;" d="M 83 0 C 128.839844 0 166 37.160156 166 83 C 166 128.839844 128.839844 166 83 166 C 37.160156 166 0 128.839844 0 83 C 0 37.160156 37.160156 0 83 0 Z M 83 0 "/>
<path style="fill-rule:nonzero;fill:rgb(76.862746%,9.019608%,9.411765%);fill-opacity:1;stroke-width:0.00032;stroke-linecap:butt;stroke-linejoin:miter;stroke:rgb(100%,100%,100%);stroke-opacity:1;stroke-miterlimit:4;" d="M 2.000301 15.280724 C 3.917771 15.280724 4.110241 14.226205 4.110241 13.363254 C 4.093976 12.625001 4.02982 11.887651 3.917771 11.158434 C 3.810241 10.42741 3.746085 9.690964 3.726205 8.952711 C 3.726205 6.552711 5.356326 5.500904 7.562049 5.500904 L 8.136747 5.500904 L 8.136747 6.937651 L 7.657832 6.937651 C 6.124398 6.937651 5.547892 7.70482 5.547892 9.143374 C 5.568675 9.785844 5.632832 10.426507 5.740362 11.060844 C 5.851506 11.726808 5.915663 12.400001 5.931928 13.075001 C 5.931928 14.800904 5.261446 15.568073 4.013554 15.952109 L 4.013554 16.05241 C 5.164759 16.33976 5.931928 17.202712 5.931928 18.928615 C 5.915663 19.603615 5.851506 20.276808 5.740362 20.942772 C 5.628314 21.577109 5.564157 22.217772 5.547892 22.861146 C 5.547892 24.298796 6.122591 25.160844 7.657832 25.160844 L 8.136747 25.160844 L 8.136747 26.600302 L 7.562049 26.600302 C 5.357229 26.600302 3.726205 25.640664 3.726205 22.956025 C 3.746085 22.217772 3.810241 21.481326 3.917771 20.751206 C 4.02982 20.052712 4.093976 19.347892 4.110241 18.641266 C 4.110241 17.778314 3.821988 16.722892 2.000301 16.722892 Z M 2.000301 15.280724 " transform="matrix(4.322916,0,0,4.322916,13.833333,13.833333)"/>
<path style="fill-rule:nonzero;fill:rgb(76.862746%,9.019608%,9.411765%);fill-opacity:1;stroke-width:0.00032;stroke-linecap:butt;stroke-linejoin:miter;stroke:rgb(100%,100%,100%);stroke-opacity:1;stroke-miterlimit:4;" d="M 9.478615 18.062049 L 8.233434 21.800302 L 6.599699 21.800302 L 10.62982 9.911446 L 12.45241 9.911446 L 16.478916 21.800302 L 14.944579 21.800302 L 13.700302 18.062049 Z M 13.411145 16.910844 L 12.25994 13.459037 C 11.978916 12.749699 11.786446 12.009639 11.685242 11.254217 C 11.492772 11.924699 11.301205 12.691868 11.109639 13.364157 L 9.959338 16.815061 L 13.411145 16.815061 Z M 13.411145 16.910844 " transform="matrix(4.322916,0,0,4.322916,13.833333,13.833333)"/>
<path style="fill-rule:nonzero;fill:rgb(76.862746%,9.019608%,9.411765%);fill-opacity:1;stroke-width:0.00032;stroke-linecap:butt;stroke-linejoin:miter;stroke:rgb(100%,100%,100%);stroke-opacity:1;stroke-miterlimit:4;" d="M 17.918374 19.978615 C 18.767772 20.459338 19.722892 20.72229 20.698796 20.745784 C 22.233133 20.745784 23.191868 19.882832 23.191868 18.731627 C 23.191868 17.581326 22.521387 17.005724 20.987049 16.331627 C 19.068676 15.661145 17.822591 14.605724 17.822591 12.975603 C 17.822591 11.153916 19.356929 9.716266 21.659338 9.716266 C 22.557531 9.67741 23.450302 9.876205 24.248194 10.290964 L 23.864158 11.537952 C 23.140362 11.215362 22.356025 11.051808 21.563555 11.059037 C 19.934338 11.059037 19.358736 12.017772 19.358736 12.880723 C 19.358736 14.031928 20.125904 14.510844 21.758736 15.181326 C 23.772893 15.947591 24.827411 16.90723 24.827411 18.633133 C 24.827411 20.45482 23.48464 22.084941 20.704218 22.084941 C 19.62982 22.118374 18.568073 21.852712 17.636447 21.317772 Z M 17.918374 19.978615 " transform="matrix(4.322916,0,0,4.322916,13.833333,13.833333)"/>
<path style="fill-rule:nonzero;fill:rgb(76.862746%,9.019608%,9.411765%);fill-opacity:1;stroke-width:0.00032;stroke-linecap:butt;stroke-linejoin:miter;stroke:rgb(100%,100%,100%);stroke-opacity:1;stroke-miterlimit:4;" d="M 29.9997 16.622591 C 28.08223 16.622591 27.88976 17.773796 27.88976 18.540965 C 27.906025 19.247591 27.970182 19.952411 28.08223 20.650905 C 28.197893 21.381025 28.262049 22.117471 28.273796 22.855724 C 28.273796 25.541266 26.643676 26.500001 24.437953 26.500001 L 23.863254 26.500001 L 23.863254 25.06235 L 24.34217 25.06235 C 25.77982 25.06235 26.45211 24.199399 26.45211 22.761748 C 26.435845 22.118374 26.371688 21.477712 26.25964 20.844278 C 26.148495 20.178314 26.084338 19.505121 26.068073 18.830121 C 26.068073 17.104218 26.835242 16.241266 27.986447 15.953013 L 27.986447 15.852712 C 26.835242 15.565362 26.068073 14.70241 26.068073 12.975603 C 26.084338 12.300603 26.148495 11.628314 26.25964 10.96235 C 26.371688 10.328013 26.435845 9.68735 26.45211 9.043976 C 26.45211 7.606326 25.877411 6.839157 24.34217 6.744277 L 23.863254 6.744277 L 23.863254 5.399699 L 24.437953 5.399699 C 26.642772 5.399699 28.273796 6.455121 28.273796 8.85241 C 28.257531 9.590663 28.193375 10.327109 28.08223 11.057229 C 27.970182 11.78735 27.906025 12.523796 27.88976 13.262049 C 27.88976 14.220784 28.178013 15.180422 29.9997 15.180422 Z M 29.9997 16.622591 " transform="matrix(4.322916,0,0,4.322916,13.833333,13.833333)"/>
</g>
</svg>
