<?xml version="1.0" encoding="UTF-8"?>
<svg id="Layer_1" xmlns="http://www.w3.org/2000/svg" version="1.1" viewBox="0 0 256 256">
  <!-- Generator: Adobe Illustrator 29.7.1, SVG Export Plug-In . SVG Version: 2.1.1 Build 8)  -->
  <defs>
    <style>
      .st0 {
        fill: #fff;
      }

      .st1 {
        fill: #c41718;
      }
    </style>
  </defs>
  <circle id="svg_2" class="st0" cx="128" cy="128" r="128"/>
  <g>
    <path class="st1" d="M90.5,219.9c-10.61,0-18.83-3.17-24.66-9.52-5.83-6.35-8.74-15.22-8.74-26.61,0-5.01.68-9.96,2.05-14.84s2.05-9.96,2.05-15.23c0-3.38-1.29-6.1-3.86-8.15-2.57-2.05-5.96-3.55-10.16-4.49-4.2-.94-8.64-1.42-13.33-1.42v-20.9c3.45,0,6.8-.31,10.06-.93,3.25-.62,6.18-1.51,8.79-2.69,2.6-1.17,4.67-2.64,6.2-4.39,1.53-1.76,2.29-3.77,2.29-6.05,0-5.47-.68-10.6-2.05-15.38s-2.05-9.68-2.05-14.7c0-11,2.91-19.48,8.74-25.44,5.83-5.96,14.05-8.94,24.66-8.94,4.04,0,7.41.18,10.11.54,2.7.36,5.19.83,7.47,1.42l-2.34,20.8c-2.02-.33-3.96-.57-5.81-.73-1.86-.16-3.6-.24-5.22-.24-4.43,0-7.8,1.46-10.11,4.39-2.31,2.93-3.47,7.06-3.47,12.4,0,4.95.75,9.65,2.25,14.11,1.5,4.46,2.25,9.16,2.25,14.11,0,6.38-2.25,11.33-6.74,14.84s-10.78,5.34-18.85,5.47v3.71c8.07.13,14.36,2.02,18.85,5.66,4.49,3.65,6.74,8.53,6.74,14.65,0,5.14-.75,9.96-2.25,14.45-1.5,4.49-2.25,9.08-2.25,13.77,0,5.92,1.16,10.5,3.47,13.72,2.31,3.22,5.68,4.83,10.11,4.83,1.63,0,3.37-.1,5.22-.29s3.79-.42,5.81-.68l2.34,20.8c-2.28.59-4.77,1.06-7.47,1.42-2.7.36-6.07.54-10.11.54Z"/>
    <path class="st1" d="M165.7,219.9c-4.04,0-7.41-.18-10.11-.54-2.7-.36-5.19-.83-7.47-1.42l2.34-20.8c2.02.26,3.96.49,5.81.68s3.6.29,5.22.29c4.43,0,7.8-1.61,10.11-4.83,2.31-3.22,3.47-7.8,3.47-13.72,0-4.69-.75-9.28-2.25-13.77-1.5-4.49-2.25-9.31-2.25-14.45,0-6.12,2.25-11,6.74-14.65,4.49-3.65,10.77-5.53,18.85-5.66v-3.71c-8.07-.13-14.36-1.95-18.85-5.47s-6.74-8.46-6.74-14.84c0-4.95.75-9.67,2.25-14.16,1.5-4.49,2.25-9.18,2.25-14.06,0-5.34-1.16-9.47-3.47-12.4-2.31-2.93-5.68-4.39-10.11-4.39-1.63,0-3.37.08-5.22.24-1.86.16-3.79.41-5.81.73l-2.34-20.8c2.28-.59,4.77-1.06,7.47-1.42,2.7-.36,6.07-.54,10.11-.54,10.61,0,18.83,2.98,24.66,8.94,5.83,5.96,8.74,14.44,8.74,25.44,0,5.01-.68,9.91-2.05,14.7s-2.05,9.91-2.05,15.38c0,2.28.76,4.3,2.29,6.05,1.53,1.76,3.6,3.22,6.2,4.39,2.6,1.17,5.53,2.07,8.79,2.69,3.25.62,6.61.93,10.06.93v20.9c-4.69,0-9.13.47-13.33,1.42-4.2.94-7.58,2.44-10.16,4.49-2.57,2.05-3.86,4.77-3.86,8.15,0,5.27.68,10.35,2.05,15.23s2.05,9.83,2.05,14.84c0,11.39-2.91,20.26-8.74,26.61-5.83,6.35-14.05,9.52-24.66,9.52Z"/>
  </g>
</svg>