<?xml version="1.0" encoding="UTF-8"?>
<svg id="Layer_1" xmlns="http://www.w3.org/2000/svg" version="1.1" viewBox="0 0 16 16">
  <!-- Generator: Adobe Illustrator 29.7.1, SVG Export Plug-In . SVG Version: 2.1.1 Build 8)  -->
  <defs>
    <style>
      .st0 {
        fill: #c42126;
      }

      .st1 {
        fill: #fff;
      }
    </style>
  </defs>
  <circle class="st1" cx="8" cy="8" r="8"/>
  <g>
    <path class="st0" d="M5.44,13.59c-.72,0-1.29-.2-1.68-.59-.4-.39-.6-.94-.6-1.64,0-.31.05-.61.14-.91.09-.3.14-.61.14-.94,0-.21-.09-.38-.26-.5-.18-.13-.41-.22-.69-.28-.29-.06-.59-.09-.91-.09v-1.29c.24,0,.46-.02.69-.06.22-.04.42-.09.6-.17.18-.07.32-.16.42-.27.1-.11.16-.23.16-.37,0-.34-.05-.65-.14-.95-.09-.29-.14-.6-.14-.9,0-.68.2-1.2.6-1.57.4-.37.96-.55,1.68-.55.28,0,.51.01.69.03.18.02.35.05.51.09l-.16,1.28c-.14-.02-.27-.03-.4-.04-.13,0-.25-.02-.36-.02-.3,0-.53.09-.69.27s-.24.44-.24.76c0,.3.05.59.15.87.1.27.15.56.15.87,0,.39-.15.7-.46.91s-.74.33-1.29.34v.23c.55,0,.98.12,1.29.35.31.22.46.52.46.9,0,.32-.05.61-.15.89-.1.28-.15.56-.15.85,0,.37.08.65.24.84s.39.3.69.3c.11,0,.23,0,.36-.02.13-.01.26-.03.4-.04l.16,1.28c-.16.04-.33.06-.51.09s-.41.03-.69.03Z"/>
    <path class="st0" d="M10.57,13.59c-.28,0-.51-.01-.69-.03-.18-.02-.35-.05-.51-.09l.16-1.28c.14.02.27.03.4.04.13.01.25.02.36.02.3,0,.53-.1.69-.3s.24-.48.24-.84c0-.29-.05-.57-.15-.85-.1-.28-.15-.57-.15-.89,0-.38.15-.68.46-.9.31-.22.74-.34,1.29-.35v-.23c-.55,0-.98-.12-1.29-.34s-.46-.52-.46-.91c0-.3.05-.59.15-.87.1-.28.15-.56.15-.87,0-.33-.08-.58-.24-.76s-.39-.27-.69-.27c-.11,0-.23,0-.36.02-.13.01-.26.02-.4.04l-.16-1.28c.16-.04.33-.06.51-.09.18-.02.41-.03.69-.03.72,0,1.29.18,1.68.55.4.37.6.89.6,1.57,0,.31-.05.61-.14.9-.09.29-.14.61-.14.95,0,.14.05.26.16.37.1.11.25.2.42.27.18.07.38.13.6.17.22.04.45.06.69.06v1.29c-.32,0-.62.03-.91.09-.29.06-.52.15-.69.28-.18.13-.26.29-.26.5,0,.32.05.64.14.94.09.3.14.6.14.91,0,.7-.2,1.25-.6,1.64-.4.39-.96.59-1.68.59Z"/>
  </g>
</svg>